<svg id="Layer_1" data-name="Layer 1" xmlns="http://www.w3.org/2000/svg" viewBox="0 0 512 512"><defs><style>.cls-1{fill:#ffefd6;}.cls-2{fill:#e2a379;}.cls-3{fill:#3d3c3c;}.cls-4{fill:#f4b382;}.cls-5{fill:#b3233b;}.cls-6{fill:#d6876b;}.cls-7{fill:#cc785e;}.cls-8{fill:#602f0f;}.cls-9{fill:#4c230c;}</style></defs><title>bridge pose </title><path class="cls-1" d="M7.92,256C7.92,119,119,7.92,256,7.92S504.08,119,504.08,256,393,504.08,256,504.08,7.92,393,7.92,256Z"/><path class="cls-2" d="M328.68,288.61c0-3.75-15.83-1.89-20.57-2.91l-5.68,2.57c-34.66-2.46-51.29.39-51.29.39-20.66-2.41-59.14-1.64-67-.32s-6.93,17.29,1,17.94,15,.31,22.89.32,35.95-4.41,42.85-5.09l51.36-4.71a19.65,19.65,0,0,1,5.35,1.24c4.57,1.62,11.49,1.29,15.25-.44A10.46,10.46,0,0,0,328.68,288.61Z"/><path class="cls-2" d="M312.92,287.31s5,.45,5.51-2.19c.43-2.21.35-3-10.33.59C308.09,285.71,308.25,287.21,312.92,287.31Z"/><path class="cls-3" d="M213.42,192.67s2.28,31.9,10.78,33.52a24.94,24.94,0,0,1,3.5,1.33c15,6.14,24.46-5.06,27.69-4.88,3.42.18,3.83-35.91-3-36.27-12.58-.67-16.17-.54-25.43.77C221.68,187.89,213.42,192.67,213.42,192.67Z"/><path class="cls-4" d="M338.27,311.9c-4-.93-18.41,0-19.92-.1-3.63-.14-7.14-2.1-6.43-5.51.54-2.59,1.79-4.91,1.63-6.53-.79-8.32-1.66-37.89-2.49-48-.19-2.32,21.06-6.75,20.82-3.16-1,14.41-7.63,48.41-8.57,53.56,0,0,19.29,1.2,18.88,4.95C341.94,309.44,342.29,312.83,338.27,311.9Z"/><path class="cls-3" d="M312.71,219.73a83.68,83.68,0,0,0-1.65,32.09c2.9-1.93,17.65-2.3,20.77-2.08.13-3.46,5.51-46.68-3.1-53.33-9-6.91-76.84-10.13-80-10.25-11.58-.44-31,12.15-28.48,19.93,0,0,8.9,11.31,21.76,14.58C264.82,226.47,312.71,219.73,312.71,219.73Z"/><path class="cls-5" d="M173.05,279c-.1,12.28,2.57,27,10.61,31,2.74,1.33,10.34,1.63,14.29,1.33,4.4-.33,8.23-4.26,11-8.33,6-8.67-1.64-26,2.27-39.42,1.69-9.4,11.62-37.48,16.43-36.06l-14.28-34.85c-40.5,30.62-36.21,64.61-36.83,77C176.59,269.67,173.08,275.58,173.05,279Z"/><path class="cls-2" d="M173.55,288.64s-2.46.36-8.38-.81l-3.75,13.83c7.08-3.92,16,1.5,16,1.5C174.92,297.58,174.33,293.21,173.55,288.64Z"/><path class="cls-4" d="M147.55,271.75c-5-3.9-10.24-1.58-13.2.15-9.16,5.36-10.15,11.33-10.21,19-.09,10.16,26.64,14.24,31.15,13.4,11.75-2.19,16.48-18.35,16.73-25,.27-7.29-2.26-5.48-5.17-5.28-.12,0-.53-.36-.53-.36a7.93,7.93,0,0,1-3.7-.66,9.43,9.43,0,0,1-1.39.28c-.32,0-.52,0-.65-.38a7.66,7.66,0,0,0-1.12-2.49C158.07,269.1,149.89,273.56,147.55,271.75Z"/><path class="cls-6" d="M163.85,277.4s.43-.7.49-4c-.18-.41-.62-1.12-1.54-.53C162.11,273.3,163.59,275,163.85,277.4Z"/><path class="cls-7" d="M163.85,277.4s1.7-.64,2.48-3.71a1.14,1.14,0,0,0-.59-.85,1.05,1.05,0,0,0-1.4.55C164.28,276.7,163.85,277.4,163.85,277.4Z"/><path class="cls-8" d="M122.43,291.6C122.32,304,140,320.67,161.23,304c1.41-1.11,3.11-3.69.26-7.56a23.23,23.23,0,0,0-4.71-4.63c-.81-.55-1.69-1.14-2.66-1.77s-7.17.06-7.36-1.2c-1.8-12.17-8.2-17.4-11.45-17.43C127.53,272.77,122.55,278.38,122.43,291.6Z"/><path class="cls-4" d="M153.19,293.83c5.52-1.8,5.79-4.09,5.54-7.37l-8.56,1.76-3.45,1.64C147,293.13,147.67,295.63,153.19,293.83Z"/><path class="cls-9" d="M141.11,311.17c-2.5,2.87-8.47,1.47-13.33-3.11s-6.78-10.64-4.28-13.5,7-1.13,11.87,3.46S143.61,308.3,141.11,311.17Z"/><path class="cls-8" d="M148.09,287.56a13,13,0,0,1-2.64.14,10.58,10.58,0,0,1-1.73-.2l1.26,3.61,1.6,0s-.12-.39-.34-1.07l0,.09a18.2,18.2,0,0,1,3.89-1.67S151.18,287.08,148.09,287.56Z"/><path class="cls-8" d="M140.74,313.21c-2.63,3-9.09,1.4-14.42-3.62S118.81,298,121.45,295s7.53-1.07,12.85,4S143.38,310.18,140.74,313.21Z"/><path class="cls-9" d="M129.75,311.07c-.29.34-1.85-.64-3.48-2.17s-2.71-3.05-2.42-3.39,1.54.55,3.17,2.08S130,310.73,129.75,311.07Z"/><path class="cls-4" d="M330.61,296.47c.17-3.74-15.73-2.55-20.43-3.76L304.4,295c-34.52-3.9-50.89-2.2-50.89-2.2-20.54-3.27-59.39-3.67-67.26-2.69s-7.65,17,.27,18,15,.94,22.86,1.28,36.46-3.34,43.39-3.73c1-.05,51.15-2.11,51.15-2.11A19.61,19.61,0,0,1,309.2,305c4.5,1.81,11.43,1.77,15.26.19A10.45,10.45,0,0,0,330.61,296.47Z"/><path class="cls-4" d="M314.92,294.52s5,.66,5.59-2c.52-2.19.47-3-10.35.15C310.16,292.71,310.26,294.22,314.92,294.52Z"/></svg>