<svg id="Layer_1" data-name="Layer 1" xmlns="http://www.w3.org/2000/svg" viewBox="0 0 512 512"><defs><style>.cls-1{fill:#ffefd6;}.cls-2{fill:#3d3c3c;}.cls-3{fill:#e2a379;}.cls-4{fill:#b3233b;}.cls-5{fill:#f4b382;}.cls-6{fill:#d6876b;}.cls-7{fill:#cc785e;}.cls-8{fill:#602f0f;}.cls-9{fill:#4c230c;}</style></defs><title>bridge</title><path class="cls-1" d="M7.92,256C7.92,119,119,7.92,256,7.92S504.08,119,504.08,256,393,504.08,256,504.08,7.92,393,7.92,256Z"/><path class="cls-2" d="M270.36,231.32a17.31,17.31,0,0,0,2.16,4.16c8.79,13.63,21.22,10.35,23.77,12.35S318.65,219,313.9,214.17c-9.33-9.59-12.86-11.15-21.38-15-3.11-1.41-8.07-2.16-11.23-2.64C279.38,196.24,268.15,223,270.36,231.32Z"/><path class="cls-3" d="M202.6,308.53c1.15-4,19.85-3,22.8-4.14,1.47-.56,3-2.69,6.46-2.66,4.58,0,7,3.42,8.62,3.7,8.7,1.55,37.83-11.79,42.68-12.37,9.88-1.19,4,21.73.4,21.55-14.1-.69-43.29.41-48.28.17,0,0-17.32.36-21-.25C212,314.16,201.46,312.49,202.6,308.53Z"/><path class="cls-2" d="M318.64,293.29c-14-.27-21.53-3.14-35.48-.22,2.67,8.26,1.55,16.82.87,21.55,17.78.53,62.35,1.76,64.91-8.81,2.67-11-19.47-74-35-91.53,0,0-19.95,20.39-17.7,33.47C300.24,270.89,318.64,293.29,318.64,293.29Z"/><path class="cls-4" d="M196.14,223.72c-9.8,7.4-10.68,17.24-10.28,29.67.13,3.88,2.75,9.77,5.84,12.24a19.63,19.63,0,0,0,8.56,4c6.89,1.38,47.18-39.87,53.18-40.71s10-.33,16.92,2.42l10.93-34.79c-51-3.3-66.15,16.56-74.77,25C206.52,221.48,199.77,221,196.14,223.72Z"/><path class="cls-3" d="M188.54,261.51A137.7,137.7,0,0,1,182.13,274l12.16,11.39c.43-8.37,6-15.79,6-15.79C190.65,267.23,189,261.56,188.54,261.51Z"/><path class="cls-5" d="M165.91,292.42c-3.18,5.53-.17,10.36,1.94,13.05,6.55,8.35,12.6,8.52,20.22,7.54,10.08-1.29,10.5-28.33,9-32.69-3.77-11.34-20.42-13.83-27-13.18-7.26.72-5.12,3-4.54,5.83,0,.12-.28.58-.28.58a8,8,0,0,1-.15,3.75,9.71,9.71,0,0,1,.46,1.34c.06.32.06.52-.29.7A7.71,7.71,0,0,0,163,280.8C161.85,282.36,167.38,289.85,165.91,292.42Z"/><path class="cls-6" d="M169.28,275.5s-.75-.33-4,.06c-.39.24-1,.76-.32,1.6C165.46,277.79,167,276.09,169.28,275.5Z"/><path class="cls-7" d="M169.28,275.5s-.87-1.59-4-1.95a1.14,1.14,0,0,0-.76.7,1.05,1.05,0,0,0,.74,1.31C168.54,275.17,169.28,275.5,169.28,275.5Z"/><path class="cls-8" d="M189,314.61c12.3-1.58,26.41-21.39,7-40.12-1.3-1.25-4.08-2.58-7.52.77a23.14,23.14,0,0,0-3.94,5.29q-.66,1.32-1.39,2.87c-.53,1.13,1,7.09-.19,7.45-11.81,3.44-16.13,10.48-15.71,13.71C169.63,312.12,175.87,316.29,189,314.61Z"/><path class="cls-5" d="M187,283.83c-2.53-5.22-4.84-5.18-8.06-4.48l2.91,8.24,2.09,3.19C187.16,290.08,189.55,289.05,187,283.83Z"/><path class="cls-9" d="M205.83,293.45c3.19,2.09,2.61,8.19-1.28,13.63s-9.62,8.17-12.79,6.08-2.08-6.79,1.81-12.23S202.65,291.36,205.83,293.45Z"/><path class="cls-8" d="M181.5,289.74a12.94,12.94,0,0,1,.5,2.6,10.27,10.27,0,0,1,0,1.74l3.41-1.74c-.06-.52-.13-1.05-.19-1.58,0,0-.37.17-1,.48l.09,0a18.22,18.22,0,0,1-2.19-3.63S180.6,286.74,181.5,289.74Z"/><path class="cls-8" d="M207.9,293.53c3.36,2.2,2.63,8.82-1.63,14.78s-10.42,9-13.78,6.81-2.08-7.31,2.18-13.27S204.55,291.33,207.9,293.53Z"/><path class="cls-9" d="M207.27,304.71c.37.25-.38,1.92-1.68,3.74s-2.66,3.1-3,2.85.33-1.6,1.63-3.42S206.9,304.47,207.27,304.71Z"/><path class="cls-5" d="M332.94,306.93c1.65-3.37-13.43-8.59-17.26-11.56l-6.23-.16c-30.14-17.28-46.51-18.31-46.51-18.31-17.56-11.15-52.38-30.84-60-33.06s-13.76,12.55-6.88,16.6,13.37,6.81,20.47,10.25,34.12,15.31,40.64,17.7c.9.33,48.46,14.45,48.46,14.45a19.7,19.7,0,0,1,4.27,3.44c3.42,3.45,9.79,6.16,13.93,6.23A10.44,10.44,0,0,0,332.94,306.93Z"/><path class="cls-5" d="M319.31,298.91s4.31,2.58,5.91.42c1.34-1.8,1.62-2.55-9.56-4C315.66,295.37,315.15,296.79,319.31,298.91Z"/></svg>