<svg id="Layer_1" data-name="Layer 1" xmlns="http://www.w3.org/2000/svg" viewBox="0 0 512 512"><defs><style>.cls-1{fill:#ffefd6;}.cls-2{fill:#e2a379;}.cls-3{fill:#333;}.cls-4{fill:#b3233b;}.cls-5{fill:#f4b382;}.cls-6{fill:#d6876b;}.cls-7{fill:#cc785e;}.cls-8{fill:#602f0f;}.cls-9{fill:#4c230c;}.cls-10{fill:#3d3c3c;}</style></defs><title>extended triangle </title><path class="cls-1" d="M7.92,256C7.92,119,119,7.92,256,7.92S504.08,119,504.08,256,393,504.08,256,504.08,7.92,393,7.92,256Z"/><path class="cls-2" d="M148,369.85c-12.25,0-15.32-1.72-21.07-1.52-2.26.08-8.7,3-11.45-1-1.42-2.08-1.95-6.44.33-9.07,1.64-1.89,3.48-3.44,4.45-4.74,5-6.71,10.9-22.22,16.28-30.76a56.61,56.61,0,0,1,3.33-4.87c5.73-7.63,19.22,10.5,16.63,13-10.37,10.06-21.09,23.79-25.24,27,0,0,22.56,1.21,26.42,4.33C161.33,365.22,153.45,369.85,148,369.85Z"/><path class="cls-3" d="M177.53,308.51c-8.43,9.3-14.35,15.07-21.06,22.42-1.66-3.06-13.77-11.74-16.63-13a72.34,72.34,0,0,1,5.59-6.37,133.29,133.29,0,0,1,17.2-15.63c4.83-6.49,37-41,47.49-61.75,1.24-2.71,6.08-7.22,9.63-5.92,0,0,33.51,12.3,29.19,19.24-12.35,12.65-42,35.74-52.23,44.35C190.49,297.07,177.53,308.51,177.53,308.51Z"/><path class="cls-2" d="M385.24,143.67c-3-2.26-11,11.52-14.69,14.7l-1.36,6.08c-22.79,26.22-27,42.09-27,42.09-14.34,15.06-38.05,39-41.7,46.07s9.65,15.93,15,10,6.92-5.42,11.67-11.71,21.63-30.51,25.23-36.44c.5-.81,23.56-44.74,23.56-44.74a19.75,19.75,0,0,1,4.2-3.53c4-2.68,7.94-8.41,8.81-12.46A10.46,10.46,0,0,0,385.24,143.67Z"/><path class="cls-2" d="M374.72,155.49s3.37-3.73,1.56-5.72c-1.51-1.66-2.19-2.08-5.74,8.62C370.54,158.38,371.84,159.16,374.72,155.49Z"/><path class="cls-4" d="M278.59,278.71c10.53,6.31,18.24-1.14,32.92-.64,1.84.06,9.41-4.44,11.4-7.86,2.22-3.81,3.82-8.1,2.28-12.8-1.19-3.63-6.25-12.37-28.43-19.79-10-4.08-56.53-15.46-56.53-15.46l-22,17.93c31.3,20.55,44.76,22.88,54.61,30.4C272.86,270.49,275.6,276.92,278.59,278.71Z"/><path class="cls-2" d="M314.35,278.29s8.77,3.44,16.11,7.21L340,276c-7.72-3.26-14.59-11.8-14.59-11.8-7.23,10.28-13.49,12.28-16.67,13.85Z"/><path class="cls-5" d="M331.42,304c1.18,6.26,6.61,8,10,8.65,10.41,2.07,15.11-1.74,20.26-7.44,6.81-7.54-10.47-28.34-14.41-30.71-10.24-6.16-24.51,2.79-29.1,7.58-5,5.27-1.95,5.6.36,7.38a2,2,0,0,1,.16.62A7.87,7.87,0,0,1,321,293a9.09,9.09,0,0,1,1.22.71c.25.2.39.35.24.72a7.82,7.82,0,0,0-.81,2.61C321.79,299,330.87,301.09,331.42,304Z"/><path class="cls-6" d="M323,289s-.78.24-3,2.68c-.13.43-.28,1.25.8,1.42C321.55,293.18,321.61,290.9,323,289Z"/><path class="cls-7" d="M323,289s-1.7-.64-4.32,1.13a1.14,1.14,0,0,0-.12,1,1.05,1.05,0,0,0,1.41.52C322.19,289.19,323,289,323,289Z"/><path class="cls-8" d="M363.38,305.83c8.31-9.2,6.13-33.42-20.8-35-1.8-.1-4.77.7-5.21,5.48a23.31,23.31,0,0,0,.44,6.59q.36,1.43.82,3.09c.33,1.2,5.4,4.71,4.7,5.78-6.73,10.3-5.42,18.45-3,20.63C347.07,316.53,354.52,315.64,363.38,305.83Z"/><path class="cls-5" d="M341.86,283.75c-5.32-2.32-7-.79-9,1.84l7.57,4.36,3.66,1.06C346,288.39,347.18,286.06,341.86,283.75Z"/><path class="cls-9" d="M362.4,278.8c3.78-.49,7.31,4.52,7.91,11.18s-2,12.46-5.76,12.94-6-3.81-6.58-10.47S358.63,279.28,362.4,278.8Z"/><path class="cls-8" d="M341.52,291.82a13.1,13.1,0,0,1,2.06,1.65,10.59,10.59,0,0,1,1.16,1.3l1.46-3.54L345,290.15s-.17.37-.46,1l0-.09a18.15,18.15,0,0,1-4-1.33S338.88,290.12,341.52,291.82Z"/><path class="cls-8" d="M364,277.52c4-.51,7.73,5,8.38,12.28s-2.05,13.63-6,14.14-6.34-4.2-7-11.49S360,278,364,277.52Z"/><path class="cls-9" d="M370.83,286.41c.44-.06,1,1.7,1.16,3.93s0,4.08-.44,4.14-.79-1.43-1-3.66S370.38,286.47,370.83,286.41Z"/><path class="cls-10" d="M223.18,221.65c-12,3.17-22.42,22.2-5.8,38.94,6.48,6.53,22,7.72,22,7.72s30.21-15.06,24.54-19.58c-4.64-3.71-8.82-7.14-12.47-10.19a113.65,113.65,0,0,0-11.32-7.11c-.67-.39.13-9.27.13-9.27C236.52,221.27,229.34,220,223.18,221.65Z"/><path class="cls-2" d="M394.31,367.41c-3,2.81-16.65-8.13-19.76-8.67-1.55-.27-3.93.77-6.9-1-3.9-2.39-4.05-6.83-5.48-7.61-7.33-4-25.87-17-34.66-21.95q-3-1.72-6.16-3.69c-8.41-5.32,7.7-19,10.54-16.82,11.38,8.89,35.82,33.45,39.56,37.12,0,0,13.12,9.09,16,11.53C389.18,357.75,397.33,364.6,394.31,367.41Z"/><path class="cls-10" d="M296.36,304.79a209.8,209.8,0,0,0,25.45,20.08c.87-3.37,8.39-14.67,10.86-16.6-2.79-2.27-23.4-21.11-23.4-21.11-6.54-6-44.64-41.51-59.07-48.89a71.23,71.23,0,0,0-10-4.61c-5.68-2.1-25.72,21-19.84,26.66,15.07,9.25,50.28,26.44,57.46,30.24S296.36,304.79,296.36,304.79Z"/><path class="cls-5" d="M394.29,142.44c-2.87-2.41-11.59,10.95-15.4,13.94l-1.67,6c-24.07,25.05-29,40.69-29,40.69-15.07,14.33-42.62,43.34-46.62,50.19S310.4,269.65,316,264s9.85-11.32,14.9-17.38,23.13-29.39,27-35.13c.53-.79,25.76-43.51,25.76-43.51a19.75,19.75,0,0,1,4.37-3.31c4.18-2.48,8.35-8,9.42-12A10.44,10.44,0,0,0,394.29,142.44Z"/><path class="cls-5" d="M383.2,153.72s3.55-3.55,1.84-5.63c-1.42-1.74-2.08-2.18-6.17,8.32C378.88,156.41,380.13,157.24,383.2,153.72Z"/></svg>