<svg id="Layer_1" data-name="Layer 1" xmlns="http://www.w3.org/2000/svg" viewBox="0 0 512 512"><defs><style>.cls-1{fill:#ffefd6;}.cls-2{fill:#302f2f;}.cls-3{fill:#f4b382;}.cls-4{fill:#3d3c3c;}.cls-5{fill:#b3233b;}.cls-6{fill:#e2a379;}.cls-7{fill:#d6876b;}.cls-8{fill:#cc785e;}.cls-9{fill:#4c230c;}.cls-10{fill:#602f0f;}</style></defs><title>firelog pose</title><path class="cls-1" d="M7.92,256C7.92,119,119,7.92,256,7.92S504.08,119,504.08,256,393,504.08,256,504.08,7.92,393,7.92,256Z"/><polygon class="cls-2" points="228.33 319.36 229.51 329.68 256 336.34 282.49 329.68 283.68 319.36 228.33 319.36"/><path class="cls-3" d="M240.58,326.2c13.75,7.68,29.32,16.23,33.31,16.93,16.76,3,29.1,11.31,27.75,14.71,0,0-39.62-5.71-68.72-11.59C221.71,344,229.92,320.25,240.58,326.2Z"/><path class="cls-4" d="M240.58,326.2c-10.66-6-20.23-11.39-22.47-12.24-8.44-3.21-28.16-10.56-32.6,4.09s10.56,17.51,21.33,21.64c5.22,2,14.87,4.29,26.08,6.56A78.13,78.13,0,0,1,240.58,326.2Z"/><path class="cls-3" d="M271.42,326.2c-13.75,7.68-29.32,16.23-33.31,16.93-16.76,3-29.09,11.31-27.75,14.71,0,0,39.62-5.71,68.72-11.59C290.29,344,282.08,320.25,271.42,326.2Z"/><path class="cls-4" d="M271.42,326.2c10.66-6,20.24-11.39,22.47-12.24,8.44-3.21,28.16-10.56,32.6,4.09s-10.56,17.51-21.33,21.64c-5.22,2-14.87,4.29-26.08,6.56A78.13,78.13,0,0,0,271.42,326.2Z"/><path class="cls-5" d="M282.49,252.09c1.88-11.47-7.51-32.44-7.51-32.44a109.4,109.4,0,0,0-12.72-.79H249.7a108.72,108.72,0,0,0-12.68.78s-9.39,21-7.51,32.44c1.75,10.71,4.8,26.39-1.19,67.27h55.35C277.69,278.48,280.74,262.8,282.49,252.09Z"/><path class="cls-3" d="M256.5,246.35l-.08,23.83,5.71,1.33a277.44,277.44,0,0,0,30.54,6.67c11.67,1.67,19.67,3,25.43,3.39,3.51.24,6.78-1.14,7.16-2.27s-1.5-5.79-3-9.62c-3.54-9.19-22-41.42-31.11-46.17-6.5-3.4-16.19-3.84-16.19-3.84s4.27,22.76,6.9,22.88,4.63,3.46,11.25,11.25c3.88,4.87,6.71,8,11,13.37,0,0-8.54-1.5-41.56-3.22l-4-18.28Z"/><path class="cls-3" d="M255.42,246.35v23.83l-5.62,1.33a276.12,276.12,0,0,1-30.46,6.67c-11.67,1.67-19.67,3-25.43,3.39-3.51.24-6.78-1.14-7.16-2.27s1.5-5.79,3-9.62c3.54-9.19,22-41.42,31.11-46.17,6.5-3.4,16.19-3.84,16.19-3.84s-4.27,22.76-6.9,22.88S225.5,246,218.88,253.8c-3.87,4.87-6.71,8-11,13.37,0,0,8.46-1.5,41.48-3.22l4-18.28Z"/><path class="cls-6" d="M264.45,207.36H247.53c2.64,8,.21,11.59.21,11.59s.51,5.22,8.25,5.22,8.23-5.22,8.23-5.22S261.8,215.32,264.45,207.36Z"/><path class="cls-3" d="M273.33,184.11c0-20.1-7.76-24.7-17.34-24.7s-17.34,4.6-17.34,24.7a39.78,39.78,0,0,0,3,16.24c4,9,10.94,12.21,14.3,12.21s10.29-3.16,14.3-12.21A39.78,39.78,0,0,0,273.33,184.11Z"/><path class="cls-7" d="M260.88,204.31a11.06,11.06,0,0,1-9.79,0,5,5,0,0,1,2.6-2.24,7.43,7.43,0,0,1,2.3.54,7.17,7.17,0,0,1,2.27-.54C259.32,202.22,260.88,204.31,260.88,204.31Z"/><path class="cls-8" d="M260.88,204.31a7,7,0,0,1-9.79,0s.51-.61,3.37-.79c.48,0,1.11.35,1.53.35s.91-.39,1.33-.36C260.29,203.67,260.88,204.31,260.88,204.31Z"/><ellipse class="cls-9" cx="255.99" cy="160.39" rx="9.13" ry="6.23"/><path class="cls-10" d="M274,185c0-20.09-5.51-25.55-18-25.55s-18,5.45-18,25.55c0,0,26.67-5.76,26.67-13.08C264.69,179.2,274,185,274,185Z"/><path class="cls-3" d="M237,191.18c.93,5.47,2.09,5.73,3.76,5.44L239,184.72C237.31,185,236,185.71,237,191.18Z"/><path class="cls-3" d="M273,184.72l-1.77,11.91c1.66.28,2.82,0,3.76-5.44S274.69,185,273,184.72Z"/><path class="cls-10" d="M240,185.83a8,8,0,0,1-.09-1.55,6.49,6.49,0,0,1,.11-1l-2,.76c0,.31,0,.63,0,.94l.61-.21-.05,0a11,11,0,0,1,1,2.29S240.34,187.65,240,185.83Z"/><path class="cls-10" d="M272,184.28a8.31,8.31,0,0,1-.09,1.55c-.29,1.83.51,1.23.51,1.23a11.08,11.08,0,0,1,1-2.29l.55.18c0-.32,0-.63,0-.94l-2-.76a6.53,6.53,0,0,1,.11,1"/></svg>