<svg id="Layer_1" data-name="Layer 1" xmlns="http://www.w3.org/2000/svg" viewBox="0 0 512 512"><defs><style>.cls-1{fill:#ffefd6;}.cls-2{fill:#f4b382;}.cls-3{fill:#e2a379;}.cls-4{fill:#a31937;}.cls-5{fill:#b3233b;}.cls-6{fill:#d6876b;}.cls-7{fill:#cc785e;}.cls-8{fill:#4c230c;}.cls-9{fill:#602f0f;}.cls-10{fill:#3d3c3c;}</style></defs><title>Artboard 13</title><path class="cls-1" d="M7.92,256C7.92,119,119,7.92,256,7.92S504.08,119,504.08,256,393,504.08,256,504.08,7.92,393,7.92,256Z"/><path class="cls-2" d="M309.09,105.38c3.72.49-.24,15.94.14,20.78l-3.3,5.28c-2.18,34.68-6.71,50.49-6.71,50.49-.37,20.8-6.18,57.58-8.53,65.16-1.32,4.59-21.32-2.27-20.62-8.06,2-8.79,4.1-13,5.13-16.53,1.05-7.82,9.66-35.33,11.25-42.08.22-.93,11-50,11-50a19.54,19.54,0,0,0-.52-5.46c-1-4.75.25-11.56,2.48-15.06A10.45,10.45,0,0,1,309.09,105.38Z"/><path class="cls-2" d="M308.28,121.18s.22-5,2.9-5.17c2.25-.13,3,.06-2,10.17C309.22,126.18,307.76,125.81,308.28,121.18Z"/><path class="cls-2" d="M217.21,406.54c-4-.93-15.39,0-16.9-.1-3.63-.14-7.14-2.1-6.43-5.51.54-2.59,1.31-4.93,1.63-6.53,1.92-9.45-1.85-48-1.93-50.41-.31-9.95,22.43-4.3,22.19-.7-1,14.41-9.55,48.41-10.5,53.56,0,0,19.29,1.2,18.89,4.95A5.78,5.78,0,0,1,217.21,406.54Z"/><path class="cls-3" d="M199.13,391.65c-3.28-1.81,6-14.76,7.45-19.4l5-3.72C226.25,337,236.23,324,236.23,324c7.92-19.23,26.75-51.36,31.7-57.57,2.91-3.8,19,9.89,16.26,15-5,7.47-8.57,10.62-10.8,13.53-3.83,6.9-21.88,29.37-25.82,35.08-.54.79-28.48,42.54-28.48,42.54a19.64,19.64,0,0,0-1.51,5.27c-.8,4.79-4.45,10.68-7.79,13.12A10.45,10.45,0,0,1,199.13,391.65Z"/><path class="cls-3" d="M205.63,377.34s-2,4.59-4.58,3.75c-2.14-.7-2.79-1.15,5.53-8.75C206.58,372.34,207.81,373.22,205.63,377.34Z"/><path class="cls-4" d="M250.75,283.22c10.94,3.94,33.26-1.46,33.26-1.46a109.74,109.74,0,0,0,3.09-12.37L289.4,257a108.9,108.9,0,0,0,1.54-12.61s-18.9-13.05-30.52-13.3c-10.85-.23-26.82-.1-65.92-13.44l-5.05,27.21h0L185.65,260C225,268.29,240.54,279.54,250.75,283.22Z"/><path class="cls-5" d="M250.75,283.22c10.94,3.94,33.26-1.46,33.26-1.46a109.74,109.74,0,0,0,3.09-12.37L289.4,257a108.9,108.9,0,0,0,1.54-12.61s-18.9-13.05-30.52-13.3c-10.85-.23-60.39,15.45-65.49,19.42a60.54,60.54,0,0,0-9.28,9.41C225,268.29,240.54,279.54,250.75,283.22Z"/><path class="cls-3" d="M298,273.64,301.11,257c-8.3,1.14-11.43-1.9-11.43-1.9s-5.22-.45-6.63,7.16,3.63,9,3.63,9S290.68,269.59,298,273.64Z"/><path class="cls-2" d="M319.26,286.62c19.76,3.67,25.7-3.12,27.45-12.54s-1.36-17.89-21.12-21.56a39.79,39.79,0,0,0-16.52,0c-9.62,2.29-14,8.53-14.61,11.84s1.23,10.7,9.39,16.29A39.76,39.76,0,0,0,319.26,286.62Z"/><path class="cls-6" d="M301.67,270.69a11.06,11.06,0,0,1,1.79-9.62,5,5,0,0,1,1.73,3,7.42,7.42,0,0,1-1,2.16,7.17,7.17,0,0,1,.12,2.33C304,269.54,301.67,270.69,301.67,270.69Z"/><path class="cls-7" d="M301.67,270.69a7,7,0,0,1,1.79-9.62s.51.61.16,3.45c-.06.48-.55,1-.63,1.44s.21,1,.11,1.38C302.41,270.23,301.67,270.69,301.67,270.69Z"/><ellipse class="cls-8" cx="345.75" cy="273.9" rx="9.13" ry="6.23" transform="matrix(0.18, -0.98, 0.98, 0.18, 13.35, 563.85)"/><path class="cls-9" d="M318.31,287.09c19.76,3.67,26.12-.75,28.4-13s-2.08-18.67-21.84-22.33c0,0,.8,27.27,8,28.61C325.67,279,318.31,287.09,318.31,287.09Z"/><path class="cls-2" d="M318.94,249.59c-5.55-.08-6,1-6,2.7l12,.43C325,251,324.49,249.67,318.94,249.59Z"/><path class="cls-2" d="M318.72,286.22l-11.38-3.92c-.58,1.58-.54,2.77,4.67,4.69S318.14,287.8,318.72,286.22Z"/><path class="cls-9" d="M323.65,253.58a7.94,7.94,0,0,1,1.54.2,6.54,6.54,0,0,1,1,.29l-.37-2.15-.92-.17s0,.23.09.63v-.06a11,11,0,0,1-2.43.54S321.8,253.53,323.65,253.58Z"/><path class="cls-9" d="M319.33,285.31a8.38,8.38,0,0,1-1.51-.37c-1.74-.62-1.3.27-1.3.27a11.08,11.08,0,0,1,2.07,1.36l-.28.51.93.17,1.12-1.86a6.57,6.57,0,0,1-1-.08"/><path class="cls-10" d="M194.52,217.68c-22.27.71-30.26,7.1-33.59,20.44-3.41,13.66,2.59,23.85,4.56,28.08,3.5,7.5,30.23,7.61,30.65.38.35-5.93.75-11.32,1.13-16.06,0-.25,1.9-1.56,2-1.89C201.76,238.45,194.52,217.68,194.52,217.68Z"/><path class="cls-10" d="M198.59,315.91a63.37,63.37,0,0,0-5,28.08c3.25-1.24,19.17-1.61,22.17-.7.25-3.59,4.67-27,4.67-27,1.09-8.77-21.35-50.88-23.64-66.92a71.15,71.15,0,0,0-2-10.83c-1.56-5.85-32.63,4.84-33.87,12.92,3.33,17.67,13.83,31.5,21.5,43.17C186.89,301.41,198.59,315.91,198.59,315.91Z"/></svg>