<svg id="Layer_1" data-name="Layer 1" xmlns="http://www.w3.org/2000/svg" viewBox="0 0 512 512"><defs><style>.cls-1{fill:#ffefd6;}.cls-2{fill:#e2a379;}.cls-3{fill:#b3233b;}.cls-4{fill:#f4b382;}.cls-5{fill:#d6876b;}.cls-6{fill:#cc785e;}.cls-7{fill:#602f0f;}.cls-8{fill:#4c230c;}.cls-9{fill:#3d3c3c;}.cls-10{fill:#333;}</style></defs><title>weight lift</title><path class="cls-1" d="M7.92,256C7.92,119,119,7.92,256,7.92S504.08,119,504.08,256,393,504.08,256,504.08,7.92,393,7.92,256Z"/><path class="cls-2" d="M278.54,334.89c3.7.61,4.37-15.33,6.13-19.85L283,309c7.91-33.83,4.19-49.81,4.19-49.81,5.65-20,15.42-52.28,15.36-60.22s-16-9.58-17.88-1.83-3.59,8-4.85,15.81-4.88,37.08-5.29,44c-.06,1,.06,50.57.06,50.57a19.7,19.7,0,0,1-2.07,5.08c-2.33,4.26-3.09,11.15-2,15.13A10.45,10.45,0,0,0,278.54,334.89Z"/><path class="cls-2" d="M282.32,319.53s-1.24,4.87,1.29,5.79c2.11.77,2.91.82,1.05-10.3C284.66,315,283.15,314.94,282.32,319.53Z"/><path class="cls-3" d="M279.73,235.16C292,235.31,294.92,225,307.86,218c1.62-.87,5.9-8.57,5.89-12.53,0-4.41-.78-8.92-4.47-12.21-2.85-2.54-11.63-7.54-34.53-2.79-10.68,1.49-74.82,12.65-74.82,12.65l9.56,35.74c7.29-3,48.85-9.5,61.15-8C270.64,230.94,276.25,235.12,279.73,235.16Z"/><path class="cls-2" d="M309.16,211.77s9.22-1.94,17.42-2.82l2.76-13.15c-8.24,1.52-18.67-1.86-18.67-1.86-.4,12.57-5.39,17.13-7.18,20.18Z"/><path class="cls-4" d="M345.52,198c6-2.27,6.69-7.91,6.76-11.34.21-10.61-4.37-14.57-10.89-18.63-8.62-5.38-26.05,15.29-27.69,19.58-4.26,11.17,7.06,23.63,12.59,27.31,6.08,4,5.85.93,7.2-1.65.06-.1.58-.27.58-.27a7.91,7.91,0,0,1,2.49-2.81,9.44,9.44,0,0,1,.48-1.33c.15-.28.28-.44.67-.36a7.74,7.74,0,0,0,2.71.33C342.29,208.41,342.75,199.1,345.52,198Z"/><path class="cls-5" d="M332.2,209s.37.73,3.17,2.5c.45.06,1.28.06,1.25-1C336.61,209.67,334.35,210,332.2,209Z"/><path class="cls-6" d="M332.2,209s-.33,1.78,1.87,4a1.15,1.15,0,0,0,1-.06,1.06,1.06,0,0,0,.27-1.49C332.57,209.74,332.2,209,332.2,209Z"/><path class="cls-7" d="M341.7,166.26c-10.52-6.56-34-.15-30.79,26.64.21,1.79,1.53,4.57,6.31,4.16a23.26,23.26,0,0,0,6.41-1.6c.9-.4,1.86-.85,2.89-1.34s3.69-6.15,4.86-5.65c11.33,4.81,19.12,2.09,20.84-.67C355.1,180.44,352.91,173.26,341.7,166.26Z"/><path class="cls-4" d="M323.75,191.34c-1.35,5.65.47,7.08,3.4,8.57l3-8.22.4-3.79C327.58,186.41,325.09,185.7,323.75,191.34Z"/><path class="cls-8" d="M315.26,172c-1.14-3.63,3.16-8,9.62-9.75s12.61-.24,13.76,3.39-2.69,6.57-9.14,8.32S316.4,175.62,315.26,172Z"/><path class="cls-7" d="M331.75,190.25a13,13,0,0,1,1.26-2.32,10.61,10.61,0,0,1,1.07-1.37l-3.74-.81-.85,1.35,1.09.27-.1,0a18.06,18.06,0,0,1-.61,4.2S330.55,193.15,331.75,190.25Z"/><path class="cls-7" d="M313.71,170.61c-1.21-3.83,3.55-8.49,10.61-10.41s13.78-.38,15,3.45-3,7-10.08,8.9S314.91,174.44,313.71,170.61Z"/><path class="cls-8" d="M321.27,162.35c-.13-.42,1.51-1.25,3.67-1.83s4-.72,4.15-.29-1.27,1-3.43,1.61S321.41,162.78,321.27,162.35Z"/><path class="cls-9" d="M199.93,203.16c-21.71,5-31.16,18.17-31.16,30.34A21.86,21.86,0,0,0,180.41,253S212,258,211,250.8c-.81-5.88-1.47-11.25-2-16C208.4,229.28,199.93,203.16,199.93,203.16Z"/><path class="cls-2" d="M240.05,334.38c-4.61-1.09-17.63-.27-19.09-.64-3.52-.9-6.54-3.55-5.13-6.74,1.07-2.42,2.73-4.43,3-6,2.86-19.11,5.19-33,7.89-40.9,3.22-9.42,24.09-2.42,22.34.73-8.28,14.94-19.2,39.78-21.21,44.61,0,0,21.58,2.15,20.39,5.74C247.49,333.31,244.06,335.33,240.05,334.38Z"/><path class="cls-10" d="M246.76,254.09c-.21,0-9.31,2.57-9.53,2.58-3.4,7.19-6.2,11.27-10.53,23.39,3.44-.52,19.58-.79,22.32.73,1.35-2.87,5.78-14.94,9-23.84C256.19,257.55,251.27,255.72,246.76,254.09Z"/><path class="cls-4" d="M249.84,340.62c-4.66-.87-17.63.57-19.1.27-3.56-.74-6.7-3.24-5.44-6.49,1-2.47,2.52-4.55,2.68-6.17C229.92,309,231.59,295,233.9,287c2.77-9.56,23.95-3.56,22.35-.33C248.69,302,239,327.31,237.19,332.24c0,0,21.66,1.12,20.65,4.76C257.22,339.21,253.89,341.38,249.84,340.62Z"/><path class="cls-9" d="M243.59,262.5c-3.17,7.75-5.81,11.83-9.67,24.5,3.41-.69,19.53-1.72,22.33-.33,2-4.78,10.94-34.34,10.94-34.34-4.11-20.32-58.86-18.54-58.86-18.54a71.1,71.1,0,0,0-4.07-10.23c-2.67-5.44-34,4.18-33.59,12.35,1.6,6,2.5,13.09,9.74,17.09C197.59,262.5,243.59,262.5,243.59,262.5Z"/><path class="cls-4" d="M301.3,342.32c3.75.13,2.39-15.76,3.56-20.47l-2.38-5.75c3.56-34.56-2.15-49.94-2.15-49.94,3.07-20.57,6.93-60.39,5.86-68.25s-17.06-7.48-18,.45-.79,15-1.05,22.87-.14,37.4.32,44.32c.06,1,6.47,50.15,6.47,50.15a19.73,19.73,0,0,1-1.41,5.3c-1.77,4.52-1.66,11.45,0,15.26A10.45,10.45,0,0,0,301.3,342.32Z"/><path class="cls-4" d="M303.1,326.61s-.61,5,2,5.58c2.19.49,3,.44-.26-10.35C304.85,321.83,303.35,321.95,303.1,326.61Z"/></svg>